<svg xmlns="http://www.w3.org/2000/svg" width="27" height="17">
    <path fill="#FFF" fill-rule="evenodd" d="M26.895 8.682c-.052.081-.103.163-.181.244-.261.354-.547.68-.859.979a31.105 31.105 0 0 1-1.926 1.794c-.442.38-.91.734-1.379 1.087-.702.516-1.456.978-2.211 1.386-.494.244-.988.489-1.509.706-.832.354-1.717.653-2.627.816a9.571 9.571 0 0 1-1.197.163c-1.197.082-2.393.027-3.564-.245-.183-.054-.339-.081-.52-.135-.027 0-.052-.028-.079-.028-.156-.054-.312-.081-.468-.136h-.026a10.454 10.454 0 0 1-.988-.353l-1.847 1.93a.385.385 0 0 1-.287.108.383.383 0 0 1-.286-.108.407.407 0 0 1 0-.571L22.472.093a.367.367 0 0 1 .547 0 .407.407 0 0 1 0 .571l-1.925 2.011-.026.027c.468.272.937.598 1.404.924 0 .027.027.027.027.027.234.163.442.327.65.49a.345.345 0 0 1 .104.082l.624.488c.989.843 1.978 1.74 2.81 2.773a.211.211 0 0 1 .105.109.916.916 0 0 1 .181.434v.109c0 .027.027.054.027.081v.164c-.027.108-.053.217-.105.299zM18.31 5.583l-2.107 2.202c.026.108.026.19.026.299 0 1.386-1.067 2.5-2.394 2.5-.104 0-.182-.027-.286-.027l-2.029 2.147-.009.009c-.005-.003-.012-.005-.017-.009.005.004.012.006.017.009l-1.018 1.064 1.001-1.045a4.78 4.78 0 0 0 2.472.679c2.757 0 4.995-2.337 4.995-5.219 0-.924-.235-1.821-.651-2.582l.008-.008-.008-.019.008.019 2.671-2.818-2.679 2.799zm-6.799 7.13a4.839 4.839 0 0 0 2.455.671c-.904 0-1.73-.242-2.455-.671zm-7.458-1.014c-.989-.843-1.977-1.74-2.809-2.773-.365-.462-.365-.978 0-1.44.26-.354.546-.68.858-.979 1.613-1.685 3.486-3.18 5.516-4.267 1.3-.679 2.705-1.25 4.136-1.522A11.698 11.698 0 0 1 16.515.8c.702.162 1.405.38 2.081.652L6.863 13.71a23.29 23.29 0 0 1-2.81-2.011z"/>
</svg>
